<?xml version="1.0" standalone="no"?>
<!DOCTYPE svg PUBLIC "-//W3C//DTD SVG 20010904//EN"
 "http://www.w3.org/TR/2001/REC-SVG-20010904/DTD/svg10.dtd">
<svg version="1.0" xmlns="http://www.w3.org/2000/svg"
 width="1140.000000pt" height="1280.000000pt" viewBox="0 0 1140.000000 1280.000000"
 preserveAspectRatio="xMidYMid meet">
<metadata>
Created by potrace 1.15, written by Peter Selinger 2001-2017
</metadata>
<g transform="translate(0.000000,1280.000000) scale(0.100000,-0.100000)"
fill="#000000" stroke="none">
<path d="M5540 12724 c-644 -313 -1533 -685 -2170 -906 -1183 -411 -2198 -631
-3133 -679 l-238 -12 6 -26 c2 -14 45 -273 95 -576 197 -1206 345 -2033 504
-2820 374 -1859 762 -3105 1285 -4130 367 -720 786 -1301 1326 -1840 602 -601
1342 -1129 2302 -1639 l182 -97 183 97 c2289 1214 3474 2611 4258 5019 417
1280 732 2764 1205 5680 25 154 48 292 51 306 l5 26 -143 7 c-381 18 -653 46
-998 101 -1289 207 -2774 710 -4423 1499 -76 36 -139 66 -140 65 -1 0 -72 -34
-157 -75z"/>
</g>
</svg>
