<svg id="body-parts-main" xmlns="http://www.w3.org/2000/svg" viewBox="0 0 372.6 616.06"><defs><style>.cls-1{fill:none;stroke:#000;stroke-miterlimit:10;}</style></defs><path id="head" class="cls-1" d="M641.42,166.92c.61,9.57-.24,13.74,2,17.8s6.25,11.05,10.3,18.05h0A63.05,63.05,0,0,0,661.48,213c3.13,3.13,5,4.77,6.94,6.42h12.85c6.6-6.43,13.19-12.86,18.37-19.38l.15-.25.1-.16a.24.24,0,0,0,0,.08c5.16-6.52,8.08-9.18,9.06-16.28s.79-17.88-3-26.93c-1.81-4.35-5.21-11.77-10-16.39a31.42,31.42,0,0,0-14.56-8.05c-6.38-1.23-21.59-.73-29,7.36S640.81,157.35,641.42,166.92Z" transform="translate(-495.4 -131.06)"/><path id="torso" class="cls-1" d="M629.08,358.64a53.48,53.48,0,0,0-3.8,10.06l.39,0c4.11.17,8.25.68,13.12,11.77,4.33,9.85,5.58,11.24,8.93,22.56h0c.55,1.85,1.15,3.95,1.83,6.42a57.81,57.81,0,0,0,3.12,8.63c.38.82.77,1.61,1.17,2.35s.79,1.46,1.2,2.12c4.46,7.35,9.33,10.08,11,10.67l.3.09a7.73,7.73,0,0,0,.81.16l.51.08a82.4,82.4,0,0,0,12.47.28,21,21,0,0,0,4.65-.61,5,5,0,0,0,1.89-1.35,16.54,16.54,0,0,0,1.37-1.7c.23-.33.47-.69.7-1.07A47.64,47.64,0,0,0,691.9,423c.26-.6.52-1.21.78-1.85.16-.38.31-.77.46-1.17.23-.59.46-1.19.68-1.81s.5-1.39.74-2.11q.18-.52.36-1.08c.2-.63.4-1.26.6-1.91l0-.09c.05-.18.1-.37.16-.56s.09-.29.14-.44c.1-.31.2-.63.31-.95.32-.94.69-1.91,1.1-2.89.61-1.47,1.31-3,2.09-4.52l.59-1.15h0l.62-1.15c.42-.78.86-1.54,1.3-2.31.89-1.53,1.82-3.06,2.78-4.54,1.28-2,2.6-3.89,3.9-5.67.5-.67,1-1.33,1.48-2a62.21,62.21,0,0,1,6-6.86c6.07-5.72,12.23-6.5,18.39-7.28q.09-29.58.16-59.16c3-2.92,6-5.84,8.08-9.15s3.19-9.57,4.29-15.83c-5.14-11-10.28-21.95-10.28-35.14a314.77,314.77,0,0,1,2.08-33.84c-2.77-1.3-5.55-2.6-13.7-3.3s-12.64,2.27-17.67-2.4-6.24-9.39-7.46-14.15l-.07.09-.2.24c-5.18,6.52-11.77,12.95-18.37,19.38H668.42c-1.91-1.65-3.81-3.29-6.94-6.42a63.05,63.05,0,0,1-7.81-10.24c-1.3,3.82-2.6,7.64-5.55,11.11s-8,5.55-13.13,7.64c-5.39,12.54-10.78,25.08-9.57,46.25s5,31.8,8.74,42.42A20.76,20.76,0,0,0,635.8,313c.55.74,1.16,1.66,1.78,2.58-1.83,6.95-3.65,13.9-3.65,19.3s.24,11.53.49,17.67A22.79,22.79,0,0,0,629.08,358.64Z" transform="translate(-495.4 -131.06)"/><path id="arm-left" class="cls-1" d="M736.66,253.41c0,13.19,5.14,24.16,10.28,35.14A212.08,212.08,0,0,0,757,313.45c4.69,9.54,12.49,14.95,20.3,20.36-1.13,8.59-2.25,17.18,4.86,38.87s20.86,20.8,27.11,29-.49,12.39-5.76,22.09-3.46,17.36-3.11,23.35.86,5.55,3.55,5.64,2.43-3.3,2.26-8.76,6.59-10.33,8.24-8,1.67,4.71,2.78,12.44-1.9,8.52-3.93,10.06-.07,7.58-1.48,8.87-3.8,4.23-3.5,6.44,2.76,2.15,3.87,1.84,3.71-3.1,6.32-5.89c.15,1.16.3,2.33,1.53,2.82s2.09.92,3.13.12S835.52,462.4,840.38,439s-1.56-34.53-8-45.64c.62-5.7,1.24-11.4-2.06-36.57s-12.73-30-22.17-34.83c.26-11.63.52-23.26-2.43-38.53S795,264.73,787.12,261.33c-.13-2.88-.25-5.77-1.48-16.2s-10.79-20.74-18.16-23.56-18.05-2.41-28.74-2A314.77,314.77,0,0,0,736.66,253.41Z" transform="translate(-495.4 -131.06)"/><path id="leg-left" class="cls-1" d="M680.13,433.86s2.45,23.23,26,62.74,36.45,50.07,49.34,60.62c.35,2.7,2,7.39,2.87,10.26a37.18,37.18,0,0,0,4,8.07c-3,7.06-5.78,12-2.83,21.07,0,0,10,28.57,19.86,36,6.07,6.42,11.19,8.25,16.31,10.07,2.39,10.36,4.79,20.72,8,31s1.72,13.25.25,18.16-2.21,11.78,1.22,18.41,4.42,18.9,8.59,23.31,13.5,13.25,28.23,13,22.33-4.17,24.29-8.59,1.23-10.06.5-15.71a168.29,168.29,0,0,1-16.45-16.93c-6.38-7.61-10.43-15.71-14.48-23.81,4-28.56,7.94-57.11,1-86.27S816,559.39,802.1,552.62c-4.46-7.6-8.93-15.2-9.27-23.53a239.41,239.41,0,0,0-16.2-83.33c-16.2-42.21-29.21-57.64-42.22-73.07-6.16.78-12.32,1.56-18.39,7.28a62.21,62.21,0,0,0-6,6.86c-.49.64-1,1.3-1.48,2-1.3,1.78-2.62,3.69-3.9,5.67-.95,1.48-1.89,3-2.78,4.54-.44.77-.88,1.53-1.3,2.31-.21.38-.41.77-.61,1.15h0l-.59,1.15c-.78,1.53-1.48,3.05-2.09,4.52-.41,1-.78,2-1.1,2.89-.11.32-.21.64-.31.95,0,.15-.09.29-.13.44s-.11.38-.17.56l0,.09c-.2.65-.4,1.28-.6,1.91q-.18.56-.36,1.08c-.24.72-.49,1.42-.74,2.11s-.45,1.22-.68,1.81c-.15.4-.3.79-.46,1.17-.26.64-.52,1.25-.78,1.85a47.64,47.64,0,0,1-3.16,6.12c-.23.38-.47.74-.7,1.07a16.54,16.54,0,0,1-1.37,1.7,5,5,0,0,1-1.89,1.35A21,21,0,0,1,680.13,433.86Z" transform="translate(-495.4 -131.06)"/><path id="leg-right" class="cls-1" d="M499.58,736.33c5.16,4.18,8.1,5.89,18.66,4.91s22.33-2.94,30.18-13.74,9.82-17.67,17.67-18.41,12.77-1.72,11.29-14.73-6.62-16.93-6.87-29.45,0-12.76.25-13c6.67-6.46,13.34-12.91,17.26-23,5.69-7.51,14.8-40.6,14.8-40.6.24-13.25-5-23.07-10.31-32.89-1-5.35-1.93-10.69-.71-14s20.53-17.79,26.78-26.12,9.2-18.22,12.15-28.11c10.4-8.86,20.81-17.73,26.54-27.1s8.06-18,10.39-26.55l-.51-.08a7.73,7.73,0,0,1-.81-.16l-.3-.09c-1.67-.59-6.54-3.32-11-10.67-.41-.66-.81-1.37-1.2-2.12s-.79-1.53-1.17-2.35a57.81,57.81,0,0,1-3.12-8.63c-.68-2.47-1.28-4.57-1.83-6.42h0c-3.35-11.32-4.6-12.71-8.93-22.56-4.87-11.09-9-11.6-13.12-11.77l-.39,0c-33.49,28.64-67,57.29-74.26,102.75-6.07,37.92-1.15,50,.07,57.47.51,3.11-3.09,8.35-3.73,10.63-1.91,6.77-2.52,13.37-3.13,20-5.41,6.43-10.82,12.85-10.82,34.94s2.82,44.54,5.64,67c-4.88,8.72-9.77,17.43-18.36,28.48s-16.08,20.25-23.56,29.45C495.78,725.78,494.43,732.16,499.58,736.33Z" transform="translate(-495.4 -131.06)"/><path id="arm-right" class="cls-1" d="M526,444.79c9.2,3.47,24.3,9.72,27.94,1.56s7.29-9.2,6.77-20.3-.69-16.32-.87-21.52c2.08-2.95,4.17-5.9,12-10.42s29.39-18.6,35.29-32.83,5.89-18.11,5.89-22c4.69-3.8,9.39-7.6,13.29-12.29s5.9-10.76,7.9-16.83c-3.76-10.62-7.52-21.25-8.74-42.42s4.18-33.71,9.57-46.25c-16.4-.45-32.8-.89-43,14s-4.6,28.81,1,42.69c-4.92,6.12-9.83,12.25-13.39,21.21s-3.44,18.34-3.31,27.73c-11,9.19-22,18.38-25.17,33s-6.87,26.55-8.61,30.19-9.37,14.58-11.1,22.21S516.77,441.32,526,444.79Z" transform="translate(-495.4 -131.06)"/></svg>